<?xml version="1.0" encoding="iso-8859-1"?>
<!-- Uploaded to: SVG Repo, www.svgrepo.com, Generator: SVG Repo Mixer Tools -->
<svg fill="#000000" height="800px" width="800px" version="1.1" id="Capa_1" xmlns="http://www.w3.org/2000/svg" xmlns:xlink="http://www.w3.org/1999/xlink" 
	 viewBox="0 0 612.001 612.001" xml:space="preserve">
<g>
	<g>
		<g>
			<path d="M589.312,434.927h-26.091c-10.146-115.979-97.22-210.186-209.787-231.177c2.695-6.271,4.211-13.168,4.211-20.419
				c0-28.523-23.123-51.637-51.646-51.637s-51.628,23.114-51.628,51.637c0,7.26,1.516,14.157,4.211,20.419
				C145.999,224.74,58.906,318.939,48.76,434.927H22.688C10.155,434.927,0,445.081,0,457.615s10.155,22.688,22.688,22.688h47.707
				h471.21c0.073,0.009,0.145,0,0.182,0h47.526c12.533,0,22.688-10.155,22.688-22.688S601.836,434.927,589.312,434.927z
				 M94.28,434.927c11.362-106.786,101.976-190.24,211.72-190.24s200.358,83.454,211.72,190.239H94.28V434.927z"/>
			<path d="M342.618,297.477c-21.798,16.662-25.991,47.834-9.338,69.651c16.689,21.798,47.798,25.973,69.623,9.329
				c21.771-16.671,25.945-47.834,9.347-69.642C395.588,285.017,364.416,280.842,342.618,297.477z"/>
			<path d="M272.831,329.892c-11.199,8.503-13.367,24.484-4.801,35.656c8.512,11.189,24.521,13.331,35.674,4.792
				c11.18-8.521,13.331-24.53,4.764-35.701C299.947,323.467,283.993,321.326,272.831,329.892z"/>
			<path d="M273.702,395.913c-6.244,4.81-7.46,13.767-2.668,20.038c4.764,6.253,13.712,7.46,19.983,2.677
				c6.307-4.773,7.505-13.749,2.713-20.038C288.93,392.339,279.964,391.122,273.702,395.913z"/>
		</g>
	</g>
	<g>
	</g>
	<g>
	</g>
	<g>
	</g>
	<g>
	</g>
	<g>
	</g>
	<g>
	</g>
	<g>
	</g>
	<g>
	</g>
	<g>
	</g>
	<g>
	</g>
	<g>
	</g>
	<g>
	</g>
	<g>
	</g>
	<g>
	</g>
	<g>
	</g>
</g>
</svg>